<?xml version="1.0" encoding="UTF-8"?>
<svg id="Layer_4" data-name="Layer 4" xmlns="http://www.w3.org/2000/svg" xmlns:xlink="http://www.w3.org/1999/xlink" viewBox="0 0 91.21 68.56">
  <defs>
    <style>
      .cls-1 {
        fill: #e35326;
      }

      .cls-1, .cls-2, .cls-3, .cls-4, .cls-5, .cls-6, .cls-7, .cls-8 {
        stroke-width: 0px;
      }

      .cls-9 {
        font-family: Advantage-Demi, Advantage;
        font-size: 5.31px;
        font-weight: 300;
      }

      .cls-9, .cls-4 {
        fill: #fff;
      }

      .cls-2 {
        fill: #1f3b70;
      }

      .cls-10 {
        clip-path: url(#clippath-2);
      }

      .cls-11 {
        opacity: .07;
      }

      .cls-3 {
        fill: none;
      }

      .cls-12 {
        clip-path: url(#clippath-1);
      }

      .cls-5 {
        fill: #f0a121;
      }

      .cls-13 {
        clip-path: url(#clippath);
      }

      .cls-6 {
        fill: #263a7d;
      }

      .cls-7 {
        fill: #595957;
      }

      .cls-8 {
        fill: #6e7071;
      }
    </style>
    <clipPath id="clippath">
      <polygon class="cls-3" points="1748.77 1859.36 2970.7 1861.08 2970.7 607.85 1748.77 607.85 1748.77 1859.36"/>
    </clipPath>
    <clipPath id="clippath-1">
      <polygon class="cls-3" points="-1448.35 1859.36 -226.42 1861.08 -226.42 607.85 -1448.35 607.85 -1448.35 1859.36"/>
    </clipPath>
    <clipPath id="clippath-2">
      <polygon class="cls-3" points="79.02 1859.36 1300.95 1861.08 1300.95 607.85 79.02 607.85 79.02 1859.36"/>
    </clipPath>
  </defs>
  <rect class="cls-4" width="91.21" height="68.56"/>
  <g class="cls-11">
    <g class="cls-13">
      <g>
        <rect class="cls-8" x="-1510.45" y="182.53" width="4252.48" height="13.72" transform="translate(46.44 490.9) rotate(-45)"/>
        <rect class="cls-8" x="-1461.96" y="231.02" width="4252.48" height="13.72" transform="translate(26.35 539.39) rotate(-45)"/>
        <rect class="cls-8" x="-1413.46" y="279.52" width="4252.48" height="13.72" transform="translate(6.27 587.89) rotate(-45)"/>
        <rect class="cls-8" x="-1364.97" y="328.01" width="4252.48" height="13.72" transform="translate(-13.82 636.38) rotate(-45)"/>
        <rect class="cls-8" x="-1316.48" y="376.51" width="4252.48" height="13.72" transform="translate(-33.9 684.88) rotate(-45)"/>
        <rect class="cls-8" x="-1267.98" y="425" width="4252.48" height="13.72" transform="translate(-53.99 733.37) rotate(-45)"/>
        <rect class="cls-8" x="-1219.49" y="473.5" width="4252.48" height="13.72" transform="translate(-74.08 781.86) rotate(-45)"/>
        <rect class="cls-8" x="-1170.99" y="521.99" width="4252.48" height="13.72" transform="translate(-94.17 830.36) rotate(-45)"/>
        <rect class="cls-8" x="-1122.5" y="570.48" width="4252.48" height="13.72" transform="translate(-114.25 878.85) rotate(-45)"/>
        <rect class="cls-8" x="-1074.01" y="618.98" width="4252.48" height="13.72" transform="translate(-134.34 927.35) rotate(-45)"/>
        <rect class="cls-8" x="-1025.51" y="667.47" width="4252.48" height="13.72" transform="translate(-154.43 975.84) rotate(-45)"/>
        <rect class="cls-8" x="-977.02" y="715.96" width="4252.48" height="13.72" transform="translate(-174.51 1024.33) rotate(-45)"/>
        <rect class="cls-8" x="-928.53" y="764.46" width="4252.48" height="13.72" transform="translate(-194.6 1072.83) rotate(-45)"/>
        <rect class="cls-8" x="-880.03" y="812.95" width="4252.48" height="13.72" transform="translate(-214.69 1121.32) rotate(-45)"/>
        <rect class="cls-8" x="-831.54" y="861.45" width="4252.48" height="13.72" transform="translate(-234.77 1169.82) rotate(-45)"/>
        <rect class="cls-8" x="-783.04" y="909.94" width="4252.48" height="13.72" transform="translate(-254.84 1218.42) rotate(-45)"/>
        <rect class="cls-8" x="-734.55" y="958.43" width="4252.48" height="13.72" transform="translate(-274.95 1266.8) rotate(-45)"/>
        <rect class="cls-8" x="-686.06" y="1006.93" width="4252.48" height="13.72" transform="translate(-295.03 1315.3) rotate(-45)"/>
        <rect class="cls-8" x="-637.56" y="1055.42" width="4252.48" height="13.72" transform="translate(-315.1 1363.91) rotate(-45)"/>
        <rect class="cls-8" x="-589.07" y="1103.92" width="4252.48" height="13.72" transform="translate(-335.21 1412.28) rotate(-45)"/>
        <rect class="cls-8" x="-540.57" y="1152.41" width="4252.48" height="13.72" transform="translate(-355.3 1460.78) rotate(-45)"/>
      </g>
    </g>
  </g>
  <g class="cls-11">
    <g class="cls-12">
      <g>
        <rect class="cls-8" x="-3592.22" y="1297.89" width="4252.48" height="13.72" transform="translate(-1351.97 -654.45) rotate(-45)"/>
        <rect class="cls-8" x="-3543.72" y="1346.39" width="4252.48" height="13.72" transform="translate(-1372.2 -605.96) rotate(-45)"/>
        <rect class="cls-8" x="-3495.23" y="1394.88" width="4252.48" height="13.72" transform="translate(-1392.14 -557.46) rotate(-45)"/>
        <rect class="cls-8" x="-3446.73" y="1443.37" width="4252.48" height="13.72" transform="translate(-1412.23 -508.97) rotate(-45)"/>
        <rect class="cls-8" x="-3398.24" y="1491.87" width="4252.48" height="13.72" transform="translate(-1432.33 -460.47) rotate(-45)"/>
        <rect class="cls-8" x="-3349.75" y="1540.36" width="4252.48" height="13.72" transform="translate(-1452.4 -411.98) rotate(-45)"/>
      </g>
    </g>
  </g>
  <g class="cls-11">
    <g class="cls-10">
      <g>
        <rect class="cls-8" x="-3180.21" y="182.53" width="4252.48" height="13.72" transform="translate(-442.62 -689.79) rotate(-45)"/>
        <rect class="cls-8" x="-3131.71" y="231.02" width="4252.48" height="13.72" transform="translate(-462.7 -641.3) rotate(-45)"/>
        <rect class="cls-8" x="-3083.22" y="279.52" width="4252.48" height="13.72" transform="translate(-482.79 -592.81) rotate(-45)"/>
        <rect class="cls-8" x="-3034.72" y="328.01" width="4252.48" height="13.72" transform="translate(-502.87 -544.31) rotate(-45)"/>
        <rect class="cls-8" x="-2986.23" y="376.51" width="4252.48" height="13.72" transform="translate(-522.96 -495.82) rotate(-45)"/>
        <rect class="cls-8" x="-2937.74" y="425" width="4252.48" height="13.72" transform="translate(-543.05 -447.32) rotate(-45)"/>
        <rect class="cls-8" x="-2889.24" y="473.5" width="4252.48" height="13.72" transform="translate(-563.14 -398.83) rotate(-45)"/>
        <rect class="cls-8" x="-2840.75" y="521.99" width="4252.48" height="13.72" transform="translate(-583.22 -350.34) rotate(-45)"/>
        <rect class="cls-8" x="-2792.25" y="570.48" width="4252.48" height="13.72" transform="translate(-603.31 -301.84) rotate(-45)"/>
        <rect class="cls-8" x="-2743.76" y="618.98" width="4252.48" height="13.72" transform="translate(-623.4 -253.35) rotate(-45)"/>
        <rect class="cls-8" x="-2695.27" y="667.47" width="4252.48" height="13.72" transform="translate(-643.49 -204.85) rotate(-45)"/>
        <rect class="cls-8" x="-2646.77" y="715.96" width="4252.48" height="13.72" transform="translate(-663.57 -156.36) rotate(-45)"/>
        <rect class="cls-8" x="-2598.28" y="764.46" width="4252.48" height="13.72" transform="translate(-683.66 -107.87) rotate(-45)"/>
        <rect class="cls-8" x="-2549.78" y="812.95" width="4252.48" height="13.72" transform="translate(-703.75 -59.37) rotate(-45)"/>
        <rect class="cls-8" x="-2501.29" y="861.45" width="4252.48" height="13.72" transform="translate(-723.84 -10.88) rotate(-45)"/>
        <rect class="cls-8" x="-2452.8" y="909.94" width="4252.48" height="13.72" transform="translate(-743.98 37.65) rotate(-45)"/>
        <rect class="cls-8" x="-2404.3" y="958.43" width="4252.48" height="13.72" transform="translate(-764 86.11) rotate(-45)"/>
        <rect class="cls-8" x="-2355.81" y="1006.93" width="4252.48" height="13.72" transform="translate(-784.09 134.6) rotate(-45)"/>
        <rect class="cls-8" x="-2307.31" y="1055.42" width="4252.48" height="13.72" transform="translate(-804.24 183.14) rotate(-45)"/>
        <rect class="cls-8" x="-2258.82" y="1103.92" width="4252.48" height="13.72" transform="translate(-824.27 231.59) rotate(-45)"/>
        <rect class="cls-8" x="-2210.33" y="1152.41" width="4252.48" height="13.72" transform="translate(-844.35 280.09) rotate(-45)"/>
        <rect class="cls-8" x="-2161.83" y="1200.9" width="4252.48" height="13.72" transform="translate(-864.5 328.64) rotate(-45)"/>
        <rect class="cls-8" x="-2113.34" y="1249.4" width="4252.48" height="13.72" transform="translate(-884.53 377.07) rotate(-45)"/>
        <rect class="cls-8" x="-2064.84" y="1297.89" width="4252.48" height="13.72" transform="translate(-904.61 425.57) rotate(-45)"/>
        <rect class="cls-8" x="-2016.35" y="1346.39" width="4252.48" height="13.72" transform="translate(-924.76 474.13) rotate(-45)"/>
        <rect class="cls-8" x="-1967.86" y="1394.88" width="4252.48" height="13.72" transform="translate(-944.79 522.56) rotate(-45)"/>
        <rect class="cls-8" x="-1919.36" y="1443.37" width="4252.48" height="13.72" transform="translate(-964.88 571.05) rotate(-45)"/>
        <rect class="cls-8" x="-1870.87" y="1491.87" width="4252.48" height="13.72" transform="translate(-984.97 619.55) rotate(-45)"/>
        <rect class="cls-8" x="-1822.37" y="1540.36" width="4252.48" height="13.72" transform="translate(-1005.05 668.04) rotate(-45)"/>
      </g>
    </g>
  </g>
  <g>
    <polygon class="cls-1" points="87.68 45.16 55.8 45.16 57.65 40.77 55.8 36.37 87.68 36.37 85.83 40.77 87.68 45.16"/>
    <g>
      <path class="cls-6" d="M23.54,6.42v30.56c0,2.28.1,3.74.31,4.38.21.64.63,1.16,1.27,1.56.64.4,1.67.6,3.08.6h.86v1.03H9.37v-1.03h.99c1.6,0,2.74-.18,3.42-.55.68-.36,1.15-.87,1.39-1.51.24-.64.36-2.13.36-4.48v-19.37c0-1.73-.09-2.82-.26-3.25-.17-.43-.48-.8-.92-1.1-.44-.3-.96-.44-1.56-.44-.94,0-2.08.29-3.42.86l-.48-.99,13.73-6.26h.92Z"/>
      <path class="cls-6" d="M50.22,46.81c-6.09,0-11.24-2.02-15.46-6.07-4.29-4.1-6.44-9.17-6.44-15.22s2.15-11.12,6.44-15.2c4.22-4.03,9.38-6.04,15.46-6.04s11.25,2.01,15.44,6.02c4.26,4.08,6.39,9.16,6.39,15.22s-2.12,11.11-6.36,15.19c-4.24,4.07-9.39,6.11-15.46,6.11ZM50.2,11.88c-3.85,0-7.15,1.3-9.91,3.91-2.83,2.66-4.24,5.9-4.24,9.73s1.41,7.09,4.22,9.76c2.76,2.63,6.07,3.94,9.94,3.94s7.2-1.31,9.91-3.93c2.71-2.62,4.06-5.87,4.06-9.77s-1.36-7.12-4.07-9.73c-2.72-2.61-6.01-3.91-9.9-3.91Z"/>
    </g>
    <text class="cls-9" transform="translate(70.71 42.72)"><tspan x="0" y="0">Years</tspan></text>
    <g>
      <polygon class="cls-4" points="41.41 26.58 40.86 25.6 41.15 26.68 40.38 26.5 41.03 26.94 40.05 27.48 41.14 27.2 40.96 27.97 41.4 27.31 41.93 28.3 41.65 27.21 42.42 27.39 41.76 26.95 42.75 26.41 41.66 26.69 41.84 25.93 41.41 26.58 41.41 26.58"/>
      <path class="cls-5" d="M64.71,25.58c0,8.01-6.5,14.51-14.51,14.51s-14.51-6.5-14.51-14.51,6.5-14.51,14.51-14.51,14.51,6.5,14.51,14.51h0Z"/>
      <path class="cls-2" d="M63.72,25.58c0,7.47-6.05,13.52-13.52,13.52s-13.52-6.05-13.52-13.52,6.06-13.53,13.52-13.53,13.52,6.05,13.52,13.53h0Z"/>
      <path class="cls-1" d="M43.91,33.66s1.59,1.23,4.06,0c.28-.13.54-.26.81-.38,0,0-2.64-1.1-4.87.38h0Z"/>
      <path class="cls-5" d="M55.27,31.7s-2.02-.67-7.29,1.94c-2.48,1.23-4.06,0-4.06,0-.71.85-1.26,1.85-1.6,2.93,2.11,1.52,4.68,2.44,7.47,2.53,1.1-.81,2.02-1.77,4.07-2.98,3.06-1.8,4.88-.31,5.03-.17h0c-.71-1.78-1.99-3.26-3.62-4.24h0Z"/>
      <path class="cls-1" d="M56.22,37.06c-1.85.07-2.37-.95-2.37-.95-1.44.85-2.32,1.57-3.1,2.21,0,0,.3.3.82.71,2.39-.24,4.59-1.11,6.45-2.42-.43.22-1.02.42-1.8.45h0Z"/>
      <path class="cls-5" d="M54.08,23.9l-.06-.22c-.8.24-2.11.66-3.46,2.2-1.35,1.54-.35-4.01,1.09-7.03l-.21-.11s-1.31,2.52-1.82,5.58c-.42,2.57-.66-1.42-2.33-3.76l-.18.15s1.15,1.81,1.22,3.12c0,.18-.15.11-.15.11-.08-.05-.21-.16-.39-.39-.45-.57-1.06-1.04-1.29-1.19l-.09.17c2.15,1.77,2.9,4.46,1.94,3.91-1.42-.81-2.89-.85-2.89-.85v.24c4.25.34,2.94,5.22,2.94,5.22l2.18.11s-1.66-5.53,3.5-7.25h0Z"/>
      <polygon class="cls-4" points="60.34 22.63 59.32 22.17 60.2 22.87 59.48 23.19 60.27 23.14 59.81 24.16 60.5 23.28 60.82 24 60.78 23.22 61.8 23.68 60.92 22.98 61.64 22.66 60.86 22.71 61.32 21.69 60.61 22.56 60.3 21.84 60.34 22.63 60.34 22.63"/>
      <polygon class="cls-4" points="55.24 17.23 55.74 16.22 55.01 17.08 54.72 16.35 54.74 17.13 53.73 16.64 54.58 17.37 53.85 17.66 54.64 17.64 54.14 18.64 54.87 17.79 55.16 18.52 55.15 17.74 56.16 18.23 55.3 17.5 56.03 17.21 55.24 17.23 55.24 17.23"/>
      <polygon class="cls-4" points="44.49 18.13 45.11 17.19 44.28 17.96 44.07 17.19 44 17.98 43.06 17.37 43.82 18.19 43.06 18.4 43.85 18.47 43.23 19.41 44.06 18.65 44.26 19.41 44.34 18.63 45.28 19.24 44.52 18.41 45.28 18.21 44.49 18.13 44.49 18.13"/>
      <polygon class="cls-4" points="41.41 26.58 40.86 25.6 41.15 26.68 40.38 26.5 41.03 26.94 40.05 27.48 41.14 27.2 40.96 27.97 41.4 27.31 41.93 28.3 41.65 27.21 42.42 27.39 41.76 26.95 42.75 26.41 41.66 26.69 41.84 25.93 41.41 26.58 41.41 26.58"/>
      <polygon class="cls-4" points="40.37 22.06 41.12 22.01 40.38 21.87 40.71 21.46 40.26 21.73 40.21 20.98 40.07 21.72 39.66 21.39 39.93 21.84 39.19 21.89 39.92 22.03 39.6 22.44 40.05 22.17 40.09 22.91 40.23 22.18 40.64 22.5 40.37 22.06 40.37 22.06"/>
      <polygon class="cls-4" points="56.98 26.67 57.59 26.26 56.89 26.51 56.97 25.99 56.71 26.45 56.3 25.83 56.55 26.53 56.03 26.46 56.49 26.71 55.87 27.13 56.57 26.88 56.5 27.4 56.75 26.94 57.16 27.56 56.92 26.85 57.44 26.93 56.98 26.67 56.98 26.67"/>
      <polygon class="cls-4" points="48.92 16.11 49.65 16.01 48.92 15.92 49.22 15.49 48.78 15.79 48.69 15.04 48.6 15.79 48.16 15.49 48.47 15.92 47.72 16.01 48.47 16.11 48.16 16.53 48.6 16.24 48.69 16.98 48.78 16.24 49.22 16.53 48.92 16.11 48.92 16.11"/>
      <polygon class="cls-4" points="55.53 21.6 56.28 21.55 55.54 21.41 55.87 21 55.42 21.27 55.38 20.52 55.24 21.26 54.83 20.94 55.1 21.38 54.35 21.43 55.09 21.57 54.76 21.98 55.21 21.71 55.26 22.46 55.4 21.72 55.81 22.04 55.53 21.6 55.53 21.6"/>
      <path class="cls-5" d="M50.28,31.69c1.45-.66,2.48-1.01,2.48-1.01-.66-.16-1.34-.24-2.04-.24-1.66,0-3.2.45-4.53,1.25,0,0,1.34,1.25,4.09,0h0Z"/>
      <path class="cls-5" d="M51.07,16.81c-.09-.43-.34-.79-.69-1.07-.21.39-.28.83-.2,1.26.09.43.34.8.7,1.07.2-.39.28-.83.19-1.26h0Z"/>
      <path class="cls-5" d="M52.84,17.23c.24-.37.33-.8.28-1.24-.43.13-.79.38-1.03.75-.24.37-.32.8-.27,1.24.42-.13.79-.38,1.03-.75h0Z"/>
      <path class="cls-5" d="M52.26,15.05c.07-.43-.04-.86-.27-1.25-.34.3-.56.68-.62,1.12-.06.43.05.86.28,1.24.33-.3.55-.68.61-1.11h0Z"/>
      <path class="cls-5" d="M55.02,15.82c.39-.2.69-.52.87-.93-.43-.1-.87-.07-1.26.12-.4.2-.7.53-.88.93.44.11.88.07,1.27-.12h0Z"/>
      <path class="cls-5" d="M53.09,19.25c.35-.26.58-.64.69-1.07-.45-.02-.87.09-1.23.35-.36.26-.59.64-.69,1.07.45.02.87-.09,1.23-.35h0Z"/>
      <path class="cls-5" d="M54.98,19.92c.44-.05.83-.26,1.13-.58-.37-.25-.8-.37-1.23-.32-.44.05-.82.26-1.13.58.37.24.8.36,1.23.32h0Z"/>
      <path class="cls-5" d="M57.2,20.55c.44-.02.84-.2,1.17-.5-.36-.27-.77-.42-1.21-.4-.44.02-.84.2-1.17.5.36.27.78.41,1.21.4h0Z"/>
      <path class="cls-5" d="M59.59,21.46c.42.11.86.06,1.27-.13-.25-.36-.61-.63-1.03-.74-.42-.12-.86-.06-1.27.12.26.37.61.63,1.04.75h0Z"/>
      <path class="cls-5" d="M59.48,19.39c.4-.18.71-.5.91-.9-.43-.12-.87-.1-1.27.08-.4.18-.71.5-.91.9.43.12.87.1,1.28-.08h0Z"/>
      <path class="cls-5" d="M57.93,18.63c.34-.27.56-.65.66-1.09-.45-.01-.87.11-1.22.39-.35.27-.57.66-.66,1.09.45.01.87-.11,1.22-.39h0Z"/>
      <path class="cls-5" d="M57.41,16.71c.11-.42.06-.86-.13-1.27-.36.26-.63.61-.74,1.03-.12.42-.06.86.12,1.27.37-.26.64-.61.75-1.03h0Z"/>
      <path class="cls-5" d="M54.13,22.09c.09-.43.01-.86-.2-1.26-.35.28-.6.64-.68,1.08-.09.43-.01.86.2,1.25.35-.28.59-.65.68-1.08h0Z"/>
      <path class="cls-5" d="M55.94,23.1c-.44-.06-.87.06-1.24.29.31.32.69.54,1.12.6.43.06.86-.06,1.24-.29-.3-.33-.69-.54-1.12-.6h0Z"/>
      <path class="cls-5" d="M55.02,24.66c-.4-.18-.84-.19-1.27-.07.2.4.5.72.91.9.4.18.85.19,1.27.07-.2-.4-.5-.72-.91-.9h0Z"/>
      <path class="cls-5" d="M53.3,26.36c.08-.43,0-.87-.22-1.26-.34.29-.59.66-.67,1.09-.08.43,0,.86.22,1.26.34-.28.59-.65.67-1.08h0Z"/>
      <path class="cls-5" d="M57.85,24.59c-.44.06-.82.28-1.12.6.38.23.81.34,1.24.29.43-.06.82-.28,1.12-.61-.38-.24-.81-.35-1.24-.29h0Z"/>
      <path class="cls-5" d="M59.31,25.83c-.44.04-.83.24-1.15.56.37.25.79.38,1.23.34.44-.04.83-.25,1.15-.56-.37-.25-.79-.38-1.23-.34h0Z"/>
      <path class="cls-5" d="M54.99,26.84c-.15-.41-.45-.74-.84-.96-.15.42-.16.86,0,1.27.15.41.45.74.84.96.14-.43.16-.86,0-1.28h0Z"/>
      <path class="cls-5" d="M56.99,28.02c-.4-.2-.83-.23-1.27-.13.18.41.47.74.86.94.39.2.83.23,1.27.13-.18-.41-.47-.74-.86-.94h0Z"/>
      <path class="cls-5" d="M58.94,27.2c-.43-.08-.86,0-1.25.22.28.34.65.58,1.09.67.43.08.86,0,1.25-.22-.28-.35-.65-.58-1.08-.67h0Z"/>
      <path class="cls-5" d="M60.65,24.48c-.41.15-.74.45-.96.84.43.14.87.15,1.28,0,.41-.15.73-.45.96-.84-.42-.14-.86-.16-1.28,0h0Z"/>
      <path class="cls-5" d="M58.1,21.35c-.39-.19-.84-.21-1.27-.09.2.4.5.73.9.91.4.19.84.21,1.27.1-.19-.4-.5-.73-.9-.91h0Z"/>
      <path class="cls-5" d="M58.48,23.12c-.38-.21-.82-.26-1.26-.17.17.41.45.75.84.96.39.21.82.26,1.26.17-.17-.41-.45-.76-.84-.96h0Z"/>
      <path class="cls-5" d="M52.23,23.4c.19-.4.21-.84.1-1.27-.4.19-.72.49-.91.89-.19.4-.21.84-.1,1.27.41-.19.73-.49.92-.89h0Z"/>
      <path class="cls-5" d="M52.41,21.34c.39-.21.66-.56.83-.97-.44-.08-.88-.03-1.27.18-.38.21-.66.55-.82.97.44.08.88.03,1.26-.18h0Z"/>
      <path class="cls-5" d="M48.56,18.87c.05-.44-.07-.86-.32-1.24-.32.31-.53.7-.58,1.14-.05.44.07.86.32,1.24.32-.31.53-.7.57-1.14h0Z"/>
      <path class="cls-5" d="M50.26,18.7c-.19-.4-.52-.69-.92-.88-.11.43-.08.87.11,1.27.19.39.51.69.92.88.11-.43.08-.88-.11-1.27h0Z"/>
      <path class="cls-5" d="M47.5,15.73c.01-.44-.15-.85-.43-1.2-.29.34-.47.74-.48,1.18,0,.44.15.85.43,1.2.29-.34.47-.75.47-1.18h0Z"/>
      <path class="cls-5" d="M46.6,18.19c-.23-.37-.59-.63-1.01-.77-.06.44.02.88.25,1.25.24.37.59.63,1.01.77.06-.44-.01-.88-.25-1.25h0Z"/>
      <path class="cls-5" d="M45.27,15.58c-.38-.22-.81-.28-1.26-.2.16.42.43.77.81.99.38.22.81.28,1.26.2-.15-.42-.43-.76-.81-.99h0Z"/>
      <path class="cls-5" d="M46.38,20.51c-.32-.3-.73-.45-1.18-.48.06.44.25.84.57,1.14.33.3.74.45,1.18.48-.06-.44-.25-.84-.57-1.14h0Z"/>
      <path class="cls-5" d="M44.26,20.48c-.41-.15-.85-.14-1.27,0,.22.39.54.69.95.85.41.15.86.15,1.28,0-.22-.39-.54-.69-.95-.84h0Z"/>
      <path class="cls-5" d="M41.63,20.18c-.43-.11-.86-.06-1.27.13.26.37.61.63,1.03.74.42.11.86.06,1.27-.12-.26-.37-.61-.63-1.03-.75h0Z"/>
      <path class="cls-5" d="M42.74,18.53c-.18-.4-.49-.71-.89-.91-.12.43-.11.87.07,1.27.18.4.49.71.88.92.13-.43.11-.87-.06-1.27h0Z"/>
      <path class="cls-5" d="M44.91,22.05c-.43.05-.82.27-1.13.6.38.24.81.35,1.24.3.43-.05.82-.27,1.13-.6-.38-.24-.81-.35-1.24-.3h0Z"/>
      <path class="cls-5" d="M46.52,23.96c-.42-.14-.86-.11-1.28.06.24.38.58.66.99.8.41.13.85.11,1.27-.06-.23-.38-.57-.66-.99-.8h0Z"/>
      <path class="cls-5" d="M44.44,23.93c-.33-.29-.75-.43-1.2-.43.07.44.28.83.61,1.12.33.29.75.43,1.2.44-.07-.44-.28-.83-.61-1.12h0Z"/>
      <path class="cls-5" d="M42.74,22.61c.41-.18.71-.5.9-.9-.43-.12-.87-.1-1.27.08-.4.18-.7.51-.9.91.43.12.88.1,1.27-.08h0Z"/>
      <path class="cls-5" d="M41.92,24.86c.42.14.86.1,1.27-.06-.24-.38-.58-.66-1-.8-.41-.14-.85-.1-1.27.06.24.38.58.66.99.8h0Z"/>
      <path class="cls-5" d="M40.03,25.78c.39-.19.69-.52.87-.92-.43-.11-.87-.08-1.27.11-.4.19-.69.52-.88.93.43.11.88.08,1.27-.12h0Z"/>
      <path class="cls-5" d="M39.74,23.14c-.32-.29-.74-.45-1.18-.48.06.45.25.84.57,1.14.33.3.74.45,1.18.48-.06-.44-.25-.84-.57-1.14h0Z"/>
      <path class="cls-5" d="M43.69,25.38c-.44.01-.84.19-1.17.49.35.27.77.42,1.2.41.44-.02.84-.2,1.18-.49-.35-.28-.76-.42-1.21-.41h0Z"/>
      <path class="cls-5" d="M44.29,27.86c-.03.44.12.86.38,1.22.3-.33.49-.73.52-1.16.02-.44-.12-.86-.38-1.22-.31.33-.5.73-.52,1.16h0Z"/>
      <path class="cls-5" d="M45.75,27.34c.28.34.67.55,1.1.64,0-.45-.13-.87-.4-1.21-.28-.34-.67-.55-1.11-.64,0,.45.13.87.41,1.21h0Z"/>
      <path class="cls-5" d="M42.82,27.76c-.24.36-.34.79-.3,1.24.43-.12.8-.37,1.04-.73.25-.36.34-.79.3-1.24-.43.13-.8.37-1.04.73h0Z"/>
      <path class="cls-5" d="M40.48,28.33c-.43.06-.81.28-1.11.61.38.23.81.34,1.25.28.44-.06.82-.28,1.12-.61-.38-.24-.81-.34-1.25-.28h0Z"/>
      <path class="cls-5" d="M38.8,27.09c-.27.34-.4.77-.38,1.21.44-.09.82-.31,1.09-.66.27-.34.39-.77.39-1.21-.44.09-.82.31-1.09.66h0Z"/>
      <path class="cls-5" d="M49.43,20.96c.06-.43-.04-.86-.27-1.25-.33.3-.56.68-.63,1.11-.06.43.04.86.26,1.25.34-.3.56-.68.63-1.11h0Z"/>
      <path class="cls-5" d="M49.32,14.82c.36.25.79.35,1.24.31-.13-.43-.36-.8-.73-1.05-.36-.25-.8-.34-1.24-.31.12.43.37.8.73,1.05h0Z"/>
    </g>
    <g>
      <path class="cls-7" d="M34.56,63.89s-.03-.08-.03-.21l-.03-.67c-.01-.23-.06-.41-.16-.54-.04-.05-.12-.11-.21-.15.13-.08.21-.16.27-.25.12-.16.18-.37.18-.62,0-.69-.42-1.04-1.26-1.04h-1.75v3.77h.6v-1.57h1.15c.24,0,.41.07.51.19.06.09.09.22.09.41,0,.44.03.76.09.94v.04h.71v-.17l-.03-.02c-.06-.03-.1-.07-.12-.11ZM33.26,62.08h-1.09v-1.14h1.18c.41,0,.6.18.6.56s-.22.58-.69.58ZM28.75,62.52h2.01v-.55h-2.01v-1.01h2.18v-.55h-2.78v3.77h2.82v-.55h-2.21v-1.12ZM23.72,63.24l-1.74-2.8-.02-.03h-.67v3.77h.59v-2.83l1.77,2.8v.03h.65v-3.77h-.59v2.82ZM19.95,64.19h.6v-3.77h-.6v3.77ZM24.66,60.96h1.24v3.23h.61v-3.23h1.24v-.55h-3.08v.55ZM37.62,63.24l-1.76-2.82h-.67v3.77h.59v-2.83l1.77,2.8.02.03h.64v-3.77h-.59v2.82ZM56.19,60.41h-.64l-1.42,3.77h.63l.38-1.07h1.39l.36,1.07h.66l-1.35-3.74v-.04ZM55.34,62.57l.51-1.41.47,1.41h-.99ZM53.22,63.24l-1.74-2.8v-.03h-.69v3.77h.59v-2.83l1.77,2.8.02.03h.64v-3.77h-.59v2.82ZM40.59,60.41h-.64l-1.39,3.7-.02.07h.63l.38-1.07h1.4l.36,1.07h.66l-1.35-3.74v-.04ZM39.73,62.57l.51-1.41.47,1.41h-.99ZM58.48,63.64v-3.23h-.6v3.77h2.46v-.55h-1.86ZM48.47,60.31c-.63,0-1.12.23-1.45.69-.26.37-.39.79-.39,1.29s.13.93.39,1.29c.33.46.82.69,1.45.69s1.12-.23,1.45-.69c.26-.36.39-.8.39-1.29s-.13-.92-.39-1.29c-.33-.46-.82-.69-1.45-.69ZM49.37,63.33c-.23.27-.52.4-.9.4s-.67-.13-.89-.4c-.22-.26-.33-.6-.33-1.03s.11-.78.33-1.04c.22-.26.51-.4.89-.4s.67.13.9.4c.22.26.33.61.33,1.03s-.11.77-.33,1.03ZM41.96,60.96h1.25v3.23h.6v-3.23h1.24v-.55h-3.08v.55ZM45.47,64.19h.6v-3.77h-.6v3.77Z"/>
      <path class="cls-2" d="M34.83,50.86c.35,0,.65-.31.65-.68s-.3-.67-.65-.67-.69.25-.69.64.3.71.69.71ZM69.58,51.52c-.33-.2-.68-.3-1.04-.3-.24,0-.47.03-.68.1-.21.07-.4.16-.58.29-.32.23-.58.54-.77.92-.08.2-.14.39-.19.58-.04.19-.06.39-.06.61,0,.3.05.6.14.92.06.17.12.31.19.43.06.13.14.25.24.37.09.11.19.22.3.3.11.09.25.17.4.24.14.07.29.13.44.16.14.03.3.05.48.05.3,0,.58-.07.84-.2.27-.11.51-.3.73-.54.22-.24.39-.52.51-.82.11-.3.17-.63.17-.96,0-.5-.1-.93-.31-1.3-.21-.37-.48-.66-.82-.86ZM69.69,54.24c-.02.12-.06.24-.11.37-.08.24-.21.43-.4.58-.18.16-.4.24-.66.24l-.07.02c-.34,0-.61-.18-.85-.54-.25-.38-.37-.82-.37-1.31,0-.38.07-.71.21-.95.15-.24.32-.41.51-.51.17-.09.34-.14.5-.14.2,0,.37.05.53.14.17.11.3.24.4.4.11.16.19.36.26.59.06.24.09.47.09.7,0,.16,0,.3-.03.42ZM26.81,55.5c-.21,0-.38-.06-.5-.18-.27-.27-.26-.79-.25-1.1v-2.11h.55c.19,0,.36.01.46.17l.02.02h.11v-1.04h-.11c-.07.06-.18.06-.29.06h-.74v-1.53h-.45v.05c0,1.1-.3,1.65-.96,1.78h-.04v.48h.57v2.08s0,.06,0,.09c0,.37-.02,1.23.44,1.7.2.21.48.31.81.31.09,0,.19-.02.29-.06h.02s.55-.9.55-.9l-.16.07c-.11.05-.21.09-.32.09ZM13.08,51.19c-1.33,0-2.3,1.09-2.3,2.59s.94,2.51,2.19,2.51,2.27-1.14,2.27-2.6c0-.7-.26-1.4-.71-1.87-.4-.42-.86-.62-1.45-.62ZM13.02,55.5c-.83,0-1.28-.98-1.28-1.91s.52-1.62,1.24-1.62c.89,0,1.29,1,1.29,1.93s-.53,1.59-1.26,1.59ZM19.47,55.14v-3.95h-.1l-.02.02c-.12.13-.31.12-.49.12-.04,0-.07,0-.11,0h-.49v.11l.03.02c.31.22.3.52.3.92,0,.05,0,.1,0,.15v1.58c0,.75-.38,1.29-.91,1.29-.63,0-.9-.44-.9-1.47v-2.73h-.11l-.02.02c-.1.11-.3.12-.48.12h-.61v.11l.02.02c.31.21.3.52.3.91,0,.05,0,.1,0,.16v1.58c0,1.47.5,2.19,1.53,2.19.53,0,.87-.18,1.16-.65v.52h1.2v-.12l-.02-.02c-.3-.19-.3-.48-.29-.88ZM35.74,55.92h-.03c-.36-.22-.35-.5-.35-.9,0-.05,0-.1,0-.15v-3.69h-.12c-.15.15-.38.16-.6.16h-.66v.11h.03c.36.22.36.5.35.88,0,.05,0,.1,0,.15v2.38c0,.05,0,.1,0,.15,0,.39,0,.67-.35.88h-.03v.13h1.75v-.12ZM37.91,57.28c-.42.26-.88.31-1.2.31-.77,0-1.61-.29-2.52-.87-1.08-.69-2.04-.92-2.75-.98v-5s.01-.1.01-.16c0-.44-.01-1.05.33-1.21h.03v-.13h-1.68v.12h.03c.35.18.34.79.34,1.24v4.12c0,.37,0,.92-.22,1.15h0s-.07.07-.11.08l-.23.1h.28c1.13.16,2.38.66,3.61,1.44.69.44,1.39.66,2.07.66,1.3,0,2.08-.78,2.12-.82l.19-.19-.25.1s-.01,0-.03.02ZM10.2,55.02l-.56-5.03c0-.23.06-.49.22-.55h.04v-.14h-1.58v.07c0,.21-.06.42-.12.62l-.89,4.01-1.39-4.2-.03-.08c-.04-.12-.08-.24-.08-.36v-.07h-1.59v.12l.02.02c.33.21.28.55.25.82l-.49,4.38v.06c-.07.53-.13,1-.46,1.35v.02s-.01.11-.01.11h1.49v-.12l-.03-.02c-.35-.19-.31-.62-.25-1.2l.46-4.22,1.53,4.4c.2.55.32.86.76,1.26l.07.06,1.23-5.63.45,4.6c0,.31-.04.61-.31.72h-.04v.14h1.74v-.11l-.02-.02c-.32-.28-.37-.54-.42-1.01ZM24.02,55.11v-1.77c0-.46,0-1.03-.22-1.42-.3-.54-.91-.73-1.33-.73-.47,0-.83.2-1.14.66v-.66h-.11c-.16.12-.36.13-.54.13h-.55v.11l.02.02c.31.21.3.52.3.92v2.74c0,.4.01.71-.3.92h-.02v.13h1.52v-.12h-.02c-.31-.23-.31-.52-.3-.93v-1.96c0-.81.26-1.17.85-1.17.69,0,.97.47.97,1.61v1.39c0,.05,0,.1,0,.15,0,.39.01.69-.3.9h-.02v.13h1.52v-.12h-.02c-.31-.23-.31-.52-.3-.92ZM50.4,54.28v-1.49c-.01-1.41-1.06-1.57-1.86-1.57h0l-.65.06-.65,1.02-.1.16.18-.09c.42-.21.79-.39,1.26-.39.34,0,.85.16.85.58s-.5.53-1.09.64c-.77.15-1.73.35-1.73,1.44,0,.88.7,1.52,1.67,1.52.15,0,.3-.02.5-.05h.02s.64-.87.64-.87c.07.56.5.86,1.29.92h.03s.48-.76.48-.76h-.08c-.72-.09-.75-.33-.75-1.13ZM49.28,55.27c-.22.07-.42.13-.64.13-.29,0-.97-.07-.97-.77,0-.55.46-.66.89-.76l.07-.02c.27-.07.55-.14.8-.26v1.48c0,.05,0,.1,0,.15l-.16.05ZM61.68,54.95c-.41.32-.82.48-1.23.48-.28,0-.54-.08-.8-.24-.26-.16-.48-.38-.64-.65-.08-.16-.15-.31-.18-.44-.04-.14-.06-.29-.06-.45,0-.36.07-.66.2-.91.13-.25.3-.43.51-.55.2-.13.42-.19.66-.19.41,0,.74.15,1.02.45l.1.11v-1.21h-.04c-.3-.1-.61-.14-.92-.14-.17,0-.34.01-.48.04-.15.03-.31.07-.47.13-.29.1-.56.26-.8.48-.12.11-.22.23-.3.36-.09.14-.16.3-.24.46-.12.33-.18.71-.18,1.13,0,.46.11.87.32,1.22.22.36.51.65.88.85.36.2.77.3,1.21.3.37,0,.73-.06,1.08-.19h.02s.5-1.18.5-1.18l-.16.13ZM56.39,52.5l-.71-.4c-.33-.19-.61-.38-.81-.56-.2-.16-.3-.38-.3-.65l.03-.21c.04-.21.14-.36.32-.46.17-.12.39-.18.64-.18.23,0,.47.05.7.15.23.11.44.26.62.45l.09.1v-1.29h-.03c-.45-.16-.86-.24-1.24-.24-.41,0-.77.06-1.11.19-.34.13-.6.34-.79.6-.22.26-.33.59-.33.99,0,.29.07.57.19.81.13.25.27.44.42.59.09.08.18.16.27.23.07.05.16.11.24.15l.98.54c.54.29.82.66.82,1.1,0,.33-.12.56-.37.72-.27.18-.56.26-.86.26-.28,0-.57-.07-.89-.22-.27-.11-.56-.31-.83-.58l-.12-.12.26,1.47h.03c.51.21.99.3,1.42.3.47,0,.88-.09,1.23-.27.35-.17.64-.42.85-.73.11-.16.2-.34.26-.54.06-.19.09-.37.09-.55,0-.38-.11-.72-.33-1.01-.22-.27-.47-.48-.75-.63ZM38.58,55.4c-.27,0-.48-.07-.62-.22-.27-.27-.25-.74-.25-1.02,0-.04,0-.08,0-.11v-1.94h.64c.22,0,.42.01.53.17l.02.02h.11v-1.02h-.12c-.08.06-.21.06-.33.06h-.85v-1.49h-.49v.06c0,1.06-.34,1.59-1.11,1.73h-.05v.47h.66v2.11c0,.34-.02,1.12.43,1.58.24.24.57.36.99.36.1,0,.21-.02.32-.05h.02s.63-.87.63-.87l-.2.07c-.11.04-.23.09-.34.09ZM65.68,55.65c-.04-.11-.05-.3-.05-.56v-2.03c0-1.23-.5-1.85-1.49-1.85-.14,0-.26.01-.37.04-.12.03-.24.07-.37.13-.19.08-.35.2-.48.35v-2.69l-.1.16c-.07.11-.2.16-.39.16l-.82.03.14.09c.13.08.21.17.24.24.03.08.05.16.06.23,0,.09.01.18.01.27v5.01c0,.35-.1.58-.3.68h-.03v.14h1.53v-.13l-.03-.02c-.12-.07-.2-.17-.25-.28-.04-.13-.07-.31-.07-.53v-1.88c0-.45.07-.77.22-.96.14-.18.38-.27.71-.27.61,0,.9.46.9,1.41v1.8c0,.18-.02.33-.06.44-.04.11-.11.21-.23.28l-.02.02v.12h1.51v-.12l-.02-.02c-.14-.09-.22-.18-.25-.28ZM77.26,55.93c-.14-.09-.22-.19-.24-.31-.02-.07-.04-.13-.05-.21,0-.07,0-.16,0-.29l-.03-6.06-.1.15c-.04.06-.09.1-.14.12-.08.02-.18.03-.3.03l-.72.04.14.09c.11.07.18.17.23.29,0,.04.01.1.03.16.01.07.01.23.01.4v4.51l-.02.61c0,.09-.02.17-.06.24-.04.07-.11.15-.21.23l-.02.02v.12h1.52v-.13h-.03ZM43.21,54.89c-.36.34-.81.51-1.31.51-.93,0-1.55-.71-1.58-1.81h3.01v-.05c.02-.72-.2-1.35-.62-1.78-.34-.35-.79-.54-1.28-.54-1.24,0-2.11,1.01-2.11,2.44s1.02,2.51,2.42,2.51c.43,0,.82-.09,1.16-.26h.02s.45-1.04.45-1.04h-.14ZM41.34,51.99c.56,0,.9.31.99.92h-1.99c.11-.57.49-.92.99-.92ZM74.29,51.52c-.33-.2-.68-.3-1.04-.3-.24,0-.47.03-.69.1-.21.07-.4.17-.57.29-.32.23-.58.54-.77.92-.08.2-.14.39-.19.58-.04.19-.06.39-.06.61,0,.3.05.6.15.92.06.16.12.3.19.43.07.14.15.26.24.37.09.11.19.22.3.3.11.09.25.17.4.24.15.07.3.13.44.16.14.03.3.05.48.05.29,0,.57-.07.84-.2.26-.11.5-.29.73-.54.22-.24.39-.51.51-.82.11-.31.17-.63.17-.96,0-.5-.11-.94-.31-1.3-.21-.37-.48-.66-.82-.86ZM74.41,54.24c-.03.13-.06.25-.11.37-.08.24-.21.43-.4.58-.19.16-.4.24-.66.24l-.07.02c-.34,0-.62-.18-.86-.54-.25-.37-.37-.82-.37-1.31,0-.39.07-.71.21-.95.15-.24.32-.41.5-.51.17-.09.34-.14.5-.14.2,0,.37.05.53.14.16.1.3.24.4.4.1.16.19.36.26.59.06.24.09.47.09.7,0,.15-.01.29-.03.42ZM45.08,51.82v-.61h-.12c-.12.12-.35.13-.55.13h-.67v.11l.03.02c.34.21.34.48.33.86,0,.05,0,.1,0,.16v2.38c0,.05,0,.1,0,.15,0,.39,0,.67-.34.88h-.02v.13h1.73v-.12h-.03c-.35-.22-.35-.5-.34-.89v-1.55c0-.98.28-1.37.99-1.37.11,0,.3.02.41.14l.1.1v-1.11l-.41-.03c-.43,0-.84.23-1.09.61Z"/>
    </g>
  </g>
</svg>